<mxfile host="app.diagrams.net" modified="2021-01-21T06:04:56.453Z" agent="5.0 (X11; Linux x86_64) AppleWebKit/537.36 (KHTML, like Gecko) Chrome/88.0.4324.96 Safari/537.36" etag="Zv-tvHBZh45u749BYDsi" version="14.2.6" type="github">
  <diagram id="D10pzstMjvoa2T-_tpaY" name="Page-1">
    <mxGraphModel dx="1237" dy="760" grid="0" gridSize="10" guides="1" tooltips="1" connect="1" arrows="1" fold="1" page="1" pageScale="1" pageWidth="1100" pageHeight="850" math="0" shadow="0">
      <root>
        <mxCell id="0" />
        <mxCell id="1" parent="0" />
        <mxCell id="r2-YMI_9rSbQmG38WCGN-55" value="" style="rounded=0;whiteSpace=wrap;html=1;fontSize=14;" parent="1" vertex="1">
          <mxGeometry x="364.5" y="455" width="571" height="332" as="geometry" />
        </mxCell>
        <mxCell id="r2-YMI_9rSbQmG38WCGN-31" value="" style="rounded=0;whiteSpace=wrap;html=1;" parent="1" vertex="1">
          <mxGeometry x="270" y="65" width="580" height="360" as="geometry" />
        </mxCell>
        <mxCell id="r2-YMI_9rSbQmG38WCGN-5" value="" style="image;html=1;image=img/lib/clip_art/computers/Laptop_128x128.png" parent="1" vertex="1">
          <mxGeometry x="80" y="375" width="60" height="50" as="geometry" />
        </mxCell>
        <mxCell id="r2-YMI_9rSbQmG38WCGN-6" value="" style="image;html=1;image=img/lib/clip_art/telecommunication/iPhone_128x128.png" parent="1" vertex="1">
          <mxGeometry x="30" y="370" width="60" height="60" as="geometry" />
        </mxCell>
        <mxCell id="r2-YMI_9rSbQmG38WCGN-10" value="" style="outlineConnect=0;dashed=0;verticalLabelPosition=bottom;verticalAlign=top;align=center;html=1;shape=mxgraph.aws3.internet_2;fillColor=#D2D3D3;gradientColor=none;" parent="1" vertex="1">
          <mxGeometry x="130" y="200" width="110" height="70" as="geometry" />
        </mxCell>
        <mxCell id="r2-YMI_9rSbQmG38WCGN-12" value="" style="endArrow=classic;startArrow=classic;html=1;" parent="1" edge="1">
          <mxGeometry width="50" height="50" relative="1" as="geometry">
            <mxPoint x="80" y="360" as="sourcePoint" />
            <mxPoint x="130" y="280" as="targetPoint" />
          </mxGeometry>
        </mxCell>
        <mxCell id="r2-YMI_9rSbQmG38WCGN-13" value="users" style="text;html=1;strokeColor=none;fillColor=none;align=center;verticalAlign=middle;whiteSpace=wrap;rounded=0;" parent="1" vertex="1">
          <mxGeometry x="60" y="440" width="40" height="20" as="geometry" />
        </mxCell>
        <mxCell id="r2-YMI_9rSbQmG38WCGN-25" style="edgeStyle=none;rounded=0;orthogonalLoop=1;jettySize=auto;html=1;exitX=0;exitY=0.5;exitDx=0;exitDy=0;exitPerimeter=0;entryX=1;entryY=0.5;entryDx=0;entryDy=0;" parent="1" source="r2-YMI_9rSbQmG38WCGN-15" target="r2-YMI_9rSbQmG38WCGN-20" edge="1">
          <mxGeometry relative="1" as="geometry" />
        </mxCell>
        <mxCell id="r2-YMI_9rSbQmG38WCGN-27" style="edgeStyle=none;rounded=0;orthogonalLoop=1;jettySize=auto;html=1;exitX=0;exitY=0.5;exitDx=0;exitDy=0;exitPerimeter=0;entryX=1;entryY=0.5;entryDx=0;entryDy=0;" parent="1" source="r2-YMI_9rSbQmG38WCGN-15" target="r2-YMI_9rSbQmG38WCGN-19" edge="1">
          <mxGeometry relative="1" as="geometry" />
        </mxCell>
        <mxCell id="r2-YMI_9rSbQmG38WCGN-15" value="" style="outlineConnect=0;dashed=0;verticalLabelPosition=bottom;verticalAlign=top;align=center;html=1;shape=mxgraph.aws3.mysql_db_instance;fillColor=#2E73B8;gradientColor=none;" parent="1" vertex="1">
          <mxGeometry x="620" y="202.75" width="60" height="64.5" as="geometry" />
        </mxCell>
        <mxCell id="r2-YMI_9rSbQmG38WCGN-21" style="edgeStyle=none;rounded=0;orthogonalLoop=1;jettySize=auto;html=1;exitX=0.05;exitY=0.05;exitDx=0;exitDy=0;exitPerimeter=0;" parent="1" source="r2-YMI_9rSbQmG38WCGN-16" target="r2-YMI_9rSbQmG38WCGN-15" edge="1">
          <mxGeometry relative="1" as="geometry" />
        </mxCell>
        <mxCell id="r2-YMI_9rSbQmG38WCGN-16" value="" style="outlineConnect=0;dashed=0;verticalLabelPosition=bottom;verticalAlign=top;align=center;html=1;shape=mxgraph.aws3.sql_slave;fillColor=#2E73B8;gradientColor=none;" parent="1" vertex="1">
          <mxGeometry x="750" y="283.75" width="60" height="64.5" as="geometry" />
        </mxCell>
        <mxCell id="r2-YMI_9rSbQmG38WCGN-22" style="edgeStyle=none;rounded=0;orthogonalLoop=1;jettySize=auto;html=1;exitX=0.05;exitY=0.93;exitDx=0;exitDy=0;exitPerimeter=0;" parent="1" source="r2-YMI_9rSbQmG38WCGN-17" target="r2-YMI_9rSbQmG38WCGN-15" edge="1">
          <mxGeometry relative="1" as="geometry" />
        </mxCell>
        <mxCell id="r2-YMI_9rSbQmG38WCGN-17" value="" style="outlineConnect=0;dashed=0;verticalLabelPosition=bottom;verticalAlign=top;align=center;html=1;shape=mxgraph.aws3.sql_slave;fillColor=#2E73B8;gradientColor=none;" parent="1" vertex="1">
          <mxGeometry x="750" y="138.25" width="60" height="64.5" as="geometry" />
        </mxCell>
        <mxCell id="r2-YMI_9rSbQmG38WCGN-18" value="" style="outlineConnect=0;fontColor=#232F3E;gradientColor=#945DF2;gradientDirection=north;fillColor=#5A30B5;strokeColor=#ffffff;dashed=0;verticalLabelPosition=bottom;verticalAlign=top;align=center;html=1;fontSize=12;fontStyle=0;aspect=fixed;shape=mxgraph.aws4.resourceIcon;resIcon=mxgraph.aws4.elastic_load_balancing;" parent="1" vertex="1">
          <mxGeometry x="290" y="196" width="78" height="78" as="geometry" />
        </mxCell>
        <mxCell id="r2-YMI_9rSbQmG38WCGN-29" style="edgeStyle=none;rounded=0;orthogonalLoop=1;jettySize=auto;html=1;exitX=0;exitY=0.5;exitDx=0;exitDy=0;" parent="1" source="r2-YMI_9rSbQmG38WCGN-19" target="r2-YMI_9rSbQmG38WCGN-18" edge="1">
          <mxGeometry relative="1" as="geometry" />
        </mxCell>
        <mxCell id="r2-YMI_9rSbQmG38WCGN-19" value="" style="shape=image;html=1;verticalAlign=top;verticalLabelPosition=bottom;labelBackgroundColor=#ffffff;imageAspect=0;aspect=fixed;image=https://cdn1.iconfinder.com/data/icons/hawcons/32/700045-icon-86-document-file-php-128.png" parent="1" vertex="1">
          <mxGeometry x="450" y="124.5" width="88" height="88" as="geometry" />
        </mxCell>
        <mxCell id="r2-YMI_9rSbQmG38WCGN-30" style="edgeStyle=none;rounded=0;orthogonalLoop=1;jettySize=auto;html=1;exitX=0;exitY=0.5;exitDx=0;exitDy=0;" parent="1" source="r2-YMI_9rSbQmG38WCGN-20" target="r2-YMI_9rSbQmG38WCGN-18" edge="1">
          <mxGeometry relative="1" as="geometry" />
        </mxCell>
        <mxCell id="r2-YMI_9rSbQmG38WCGN-20" value="" style="shape=image;html=1;verticalAlign=top;verticalLabelPosition=bottom;labelBackgroundColor=#ffffff;imageAspect=0;aspect=fixed;image=https://cdn1.iconfinder.com/data/icons/hawcons/32/700045-icon-86-document-file-php-128.png" parent="1" vertex="1">
          <mxGeometry x="450" y="272" width="88" height="88" as="geometry" />
        </mxCell>
        <mxCell id="r2-YMI_9rSbQmG38WCGN-35" value="&lt;b&gt;&lt;font style=&quot;font-size: 16px&quot;&gt;WEB SERVER&lt;/font&gt;&lt;/b&gt;" style="text;html=1;strokeColor=none;fillColor=none;align=center;verticalAlign=middle;whiteSpace=wrap;rounded=0;" parent="1" vertex="1">
          <mxGeometry x="470" y="500" width="110" height="20" as="geometry" />
        </mxCell>
        <mxCell id="r2-YMI_9rSbQmG38WCGN-36" value="&lt;span style=&quot;font-size: 16px&quot;&gt;&lt;b&gt;DATABASE SERVER&lt;/b&gt;&lt;/span&gt;" style="text;html=1;strokeColor=none;fillColor=none;align=center;verticalAlign=middle;whiteSpace=wrap;rounded=0;" parent="1" vertex="1">
          <mxGeometry x="710" y="500" width="180" height="20" as="geometry" />
        </mxCell>
        <mxCell id="r2-YMI_9rSbQmG38WCGN-37" value="" style="image;html=1;image=img/lib/clip_art/computers/Laptop_128x128.png" parent="1" vertex="1">
          <mxGeometry x="210" y="730" width="70" height="55" as="geometry" />
        </mxCell>
        <mxCell id="r2-YMI_9rSbQmG38WCGN-38" value="" style="image;html=1;image=img/lib/clip_art/telecommunication/iPhone_128x128.png" parent="1" vertex="1">
          <mxGeometry x="160" y="730" width="50" height="55" as="geometry" />
        </mxCell>
        <mxCell id="r2-YMI_9rSbQmG38WCGN-39" value="" style="outlineConnect=0;dashed=0;verticalLabelPosition=bottom;verticalAlign=top;align=center;html=1;shape=mxgraph.aws3.internet_2;fillColor=#D2D3D3;gradientColor=none;" parent="1" vertex="1">
          <mxGeometry x="150" y="532" width="110" height="70" as="geometry" />
        </mxCell>
        <mxCell id="r2-YMI_9rSbQmG38WCGN-40" value="" style="endArrow=classic;startArrow=classic;html=1;entryX=0.5;entryY=1;entryDx=0;entryDy=0;entryPerimeter=0;" parent="1" target="r2-YMI_9rSbQmG38WCGN-39" edge="1">
          <mxGeometry width="50" height="50" relative="1" as="geometry">
            <mxPoint x="205" y="720" as="sourcePoint" />
            <mxPoint x="230" y="630" as="targetPoint" />
          </mxGeometry>
        </mxCell>
        <mxCell id="r2-YMI_9rSbQmG38WCGN-41" value="USERS" style="text;html=1;strokeColor=none;fillColor=none;align=center;verticalAlign=middle;whiteSpace=wrap;rounded=0;fontStyle=1;fontSize=14;" parent="1" vertex="1">
          <mxGeometry x="200" y="795" width="40" height="20" as="geometry" />
        </mxCell>
        <mxCell id="r2-YMI_9rSbQmG38WCGN-43" value="&lt;b&gt;&lt;font style=&quot;font-size: 16px&quot;&gt;192.168.43.100/24&lt;/font&gt;&lt;/b&gt;" style="text;html=1;strokeColor=none;fillColor=none;align=center;verticalAlign=middle;whiteSpace=wrap;rounded=0;" parent="1" vertex="1">
          <mxGeometry x="470" y="660" width="110" height="20" as="geometry" />
        </mxCell>
        <mxCell id="r2-YMI_9rSbQmG38WCGN-44" value="&lt;b&gt;&lt;font style=&quot;font-size: 16px&quot;&gt;192.168.43.101/24&lt;/font&gt;&lt;/b&gt;" style="text;html=1;strokeColor=none;fillColor=none;align=center;verticalAlign=middle;whiteSpace=wrap;rounded=0;" parent="1" vertex="1">
          <mxGeometry x="750" y="660" width="110" height="20" as="geometry" />
        </mxCell>
        <mxCell id="r2-YMI_9rSbQmG38WCGN-48" value="" style="fontColor=#0066CC;verticalAlign=top;verticalLabelPosition=bottom;labelPosition=center;align=center;html=1;outlineConnect=0;fillColor=#CCCCCC;strokeColor=#6881B3;gradientColor=none;gradientDirection=north;strokeWidth=2;shape=mxgraph.networks.server;" parent="1" vertex="1">
          <mxGeometry x="464" y="532" width="110" height="107" as="geometry" />
        </mxCell>
        <mxCell id="r2-YMI_9rSbQmG38WCGN-46" value="" style="shape=image;html=1;verticalAlign=top;verticalLabelPosition=bottom;labelBackgroundColor=#ffffff;imageAspect=0;aspect=fixed;image=https://cdn4.iconfinder.com/data/icons/logos-brands-5/24/nginx-128.png" parent="1" vertex="1">
          <mxGeometry x="483" y="596.5" width="40.5" height="40.5" as="geometry" />
        </mxCell>
        <mxCell id="r2-YMI_9rSbQmG38WCGN-52" value="" style="fontColor=#0066CC;verticalAlign=top;verticalLabelPosition=bottom;labelPosition=center;align=center;html=1;outlineConnect=0;fillColor=#CCCCCC;strokeColor=#6881B3;gradientColor=none;gradientDirection=north;strokeWidth=2;shape=mxgraph.networks.server;" parent="1" vertex="1">
          <mxGeometry x="747" y="533" width="110" height="107" as="geometry" />
        </mxCell>
        <mxCell id="r2-YMI_9rSbQmG38WCGN-49" value="" style="shape=image;html=1;verticalAlign=top;verticalLabelPosition=bottom;labelBackgroundColor=#ffffff;imageAspect=0;aspect=fixed;image=https://cdn4.iconfinder.com/data/icons/logos-3/181/MySQL-128.png;fontSize=14;" parent="1" vertex="1">
          <mxGeometry x="763.5" y="557" width="83" height="83" as="geometry" />
        </mxCell>
        <mxCell id="r2-YMI_9rSbQmG38WCGN-53" value="" style="shape=image;html=1;verticalAlign=top;verticalLabelPosition=bottom;labelBackgroundColor=#ffffff;imageAspect=0;aspect=fixed;image=https://cdn4.iconfinder.com/data/icons/logos-3/568/php-logo-128.png;fontSize=14;" parent="1" vertex="1">
          <mxGeometry x="530" y="599.5" width="34.5" height="34.5" as="geometry" />
        </mxCell>
        <mxCell id="r2-YMI_9rSbQmG38WCGN-57" value="" style="endArrow=classic;startArrow=classic;html=1;fontSize=14;entryX=0;entryY=0.5;entryDx=0;entryDy=0;entryPerimeter=0;" parent="1" source="r2-YMI_9rSbQmG38WCGN-48" target="r2-YMI_9rSbQmG38WCGN-52" edge="1">
          <mxGeometry width="50" height="50" relative="1" as="geometry">
            <mxPoint x="521" y="672" as="sourcePoint" />
            <mxPoint x="571" y="622" as="targetPoint" />
          </mxGeometry>
        </mxCell>
        <mxCell id="r2-YMI_9rSbQmG38WCGN-58" value="" style="endArrow=classic;startArrow=classic;html=1;fontSize=14;exitX=1;exitY=0.7;exitDx=0;exitDy=0;exitPerimeter=0;" parent="1" source="r2-YMI_9rSbQmG38WCGN-39" target="r2-YMI_9rSbQmG38WCGN-48" edge="1">
          <mxGeometry width="50" height="50" relative="1" as="geometry">
            <mxPoint x="521" y="672" as="sourcePoint" />
            <mxPoint x="571" y="622" as="targetPoint" />
          </mxGeometry>
        </mxCell>
        <mxCell id="r2-YMI_9rSbQmG38WCGN-61" value="HTTP" style="text;html=1;strokeColor=none;fillColor=none;align=center;verticalAlign=middle;whiteSpace=wrap;rounded=0;fontSize=14;" parent="1" vertex="1">
          <mxGeometry x="370" y="561" width="40" height="20" as="geometry" />
        </mxCell>
      </root>
    </mxGraphModel>
  </diagram>
</mxfile>
